Russolo-10ptExtraBold.ufo
<glyph name="asterisk" format="2">
  <advance width="952"/>
  <unicode hex="002A"/>
  <note>
asterisk
</note>
  <outline>
    <contour>
      <point x="496" y="1087" type="line"/>
      <point x="658" y="1181"/>
      <point x="717" y="1162"/>
      <point x="768" y="1191" type="curve" smooth="yes"/>
      <point x="801" y="1210"/>
      <point x="771" y="1246"/>
      <point x="830" y="1280" type="curve"/>
      <point x="791" y="1349" type="line"/>
      <point x="732" y="1315"/>
      <point x="717" y="1356"/>
      <point x="684" y="1336" type="curve" smooth="yes"/>
      <point x="633" y="1307"/>
      <point x="618" y="1249"/>
      <point x="457" y="1156" type="curve"/>
    </contour>
    <contour>
      <point x="162" y="894" type="line"/>
      <point x="221" y="928"/>
      <point x="237" y="884"/>
      <point x="270" y="904" type="curve" smooth="yes"/>
      <point x="321" y="933"/>
      <point x="334" y="994"/>
      <point x="496" y="1087" type="curve"/>
      <point x="457" y="1156" type="line"/>
      <point x="295" y="1062"/>
      <point x="237" y="1078"/>
      <point x="186" y="1049" type="curve" smooth="yes"/>
      <point x="153" y="1030"/>
      <point x="181" y="997"/>
      <point x="122" y="963" type="curve"/>
    </contour>
    <contour>
      <point x="436" y="734" type="curve"/>
      <point x="515" y="734" type="line"/>
      <point x="515" y="802"/>
      <point x="561" y="794"/>
      <point x="561" y="833" type="curve" smooth="yes"/>
      <point x="561" y="891"/>
      <point x="515" y="933"/>
      <point x="515" y="1120" type="curve"/>
      <point x="436" y="1120" type="line"/>
      <point x="436" y="933"/>
      <point x="393" y="891"/>
      <point x="393" y="833" type="curve" smooth="yes"/>
      <point x="393" y="794"/>
      <point x="436" y="802"/>
    </contour>
    <contour>
      <point x="456" y="1087" type="curve"/>
      <point x="496" y="1155" type="line"/>
      <point x="334" y="1249"/>
      <point x="319" y="1307"/>
      <point x="269" y="1336" type="curve" smooth="yes"/>
      <point x="235" y="1356"/>
      <point x="220" y="1314"/>
      <point x="161" y="1348" type="curve"/>
      <point x="122" y="1280" type="line"/>
      <point x="181" y="1246"/>
      <point x="151" y="1210"/>
      <point x="185" y="1191" type="curve" smooth="yes"/>
      <point x="235" y="1162"/>
      <point x="294" y="1180"/>
    </contour>
    <contour>
      <point x="682" y="904" type="curve" smooth="yes"/>
      <point x="716" y="884"/>
      <point x="732" y="928"/>
      <point x="790" y="894" type="curve"/>
      <point x="830" y="962" type="line"/>
      <point x="771" y="996"/>
      <point x="800" y="1030"/>
      <point x="766" y="1049" type="curve" smooth="yes"/>
      <point x="716" y="1078"/>
      <point x="658" y="1062"/>
      <point x="496" y="1155" type="curve"/>
      <point x="456" y="1087" type="line"/>
      <point x="618" y="993"/>
      <point x="632" y="933"/>
    </contour>
    <contour>
      <point x="436" y="1120" type="curve"/>
      <point x="515" y="1120" type="line"/>
      <point x="515" y="1307"/>
      <point x="561" y="1349"/>
      <point x="561" y="1407" type="curve" smooth="yes"/>
      <point x="561" y="1446"/>
      <point x="515" y="1438"/>
      <point x="515" y="1506" type="curve"/>
      <point x="436" y="1506" type="line"/>
      <point x="436" y="1438"/>
      <point x="393" y="1446"/>
      <point x="393" y="1407" type="curve" smooth="yes"/>
      <point x="393" y="1349"/>
      <point x="436" y="1307"/>
    </contour>
  </outline>
</glyph>
<glyph name="three" format="2">
  <advance width="1304"/>
  <unicode hex="0033"/>
  <note>
three
</note>
  <outline>
    <contour>
      <point x="623" y="-21" type="curve" smooth="yes"/>
      <point x="986" y="-21"/>
      <point x="1204" y="144"/>
      <point x="1204" y="412" type="curve" smooth="yes"/>
      <point x="1204" y="616"/>
      <point x="1078" y="755"/>
      <point x="836" y="823" type="curve"/>
      <point x="836" y="677" type="line"/>
      <point x="1030" y="721"/>
      <point x="1164" y="866"/>
      <point x="1164" y="1066" type="curve" smooth="yes"/>
      <point x="1164" y="1301"/>
      <point x="981" y="1465"/>
      <point x="658" y="1465" type="curve" smooth="yes"/>
      <point x="307" y="1465"/>
      <point x="136" y="1271"/>
      <point x="128" y="1063" type="curve"/>
      <point x="441" y="1061" type="line"/>
      <point x="440" y="1083"/>
      <point x="463" y="1287"/>
      <point x="653" y="1287" type="curve" smooth="yes"/>
      <point x="784" y="1287"/>
      <point x="836" y="1180"/>
      <point x="836" y="1053" type="curve" smooth="yes"/>
      <point x="836" y="895"/>
      <point x="755" y="815"/>
      <point x="608" y="815" type="curve" smooth="yes"/>
      <point x="350" y="815" type="line"/>
      <point x="350" y="677" type="line"/>
      <point x="612" y="677" type="line" smooth="yes"/>
      <point x="744" y="677"/>
      <point x="844" y="580"/>
      <point x="844" y="418" type="curve" smooth="yes"/>
      <point x="844" y="279"/>
      <point x="771" y="148"/>
      <point x="629" y="148" type="curve" smooth="yes"/>
      <point x="507" y="148"/>
      <point x="438" y="246"/>
      <point x="438" y="372" type="curve" smooth="yes"/>
      <point x="438" y="397" type="line"/>
      <point x="98" y="397" type="line"/>
      <point x="98" y="371" type="line" smooth="yes"/>
      <point x="98" y="125"/>
      <point x="282" y="-21"/>
    </contour>
  </outline>
</glyph>
<glyph name="nine" format="2">
  <advance width="1288"/>
  <unicode hex="0039"/>
  <note>
nine
</note>
  <outline>
    <contour>
      <point x="288" y="-52" type="line"/>
      <point x="614" y="-45"/>
      <point x="750" y="1"/>
      <point x="856" y="87" type="curve" smooth="yes"/>
      <point x="946" y="161"/>
      <point x="1013" y="267"/>
      <point x="1054" y="338" type="curve" smooth="yes"/>
      <point x="1182" y="559"/>
      <point x="1184" y="819"/>
      <point x="1184" y="920" type="curve" smooth="yes"/>
      <point x="1184" y="1316"/>
      <point x="955" y="1467"/>
      <point x="634" y="1467" type="curve" smooth="yes"/>
      <point x="307" y="1467"/>
      <point x="101" y="1277"/>
      <point x="101" y="975" type="curve" smooth="yes"/>
      <point x="101" y="661"/>
      <point x="296" y="464"/>
      <point x="606" y="464" type="curve" smooth="yes"/>
      <point x="703" y="464"/>
      <point x="853" y="506"/>
      <point x="1023" y="715" type="curve"/>
      <point x="867" y="686" type="line"/>
      <point x="868" y="625"/>
      <point x="886" y="591"/>
      <point x="843" y="496" type="curve" smooth="yes"/>
      <point x="780" y="357"/>
      <point x="664" y="239"/>
      <point x="327" y="239" type="curve"/>
    </contour>
    <contour>
      <point x="617" y="713" type="curve" smooth="yes"/>
      <point x="486" y="713"/>
      <point x="441" y="820"/>
      <point x="441" y="970" type="curve" smooth="yes"/>
      <point x="441" y="1164"/>
      <point x="524" y="1240"/>
      <point x="630" y="1240" type="curve" smooth="yes"/>
      <point x="757" y="1240"/>
      <point x="830" y="1120"/>
      <point x="830" y="967" type="curve" smooth="yes"/>
      <point x="830" y="772"/>
      <point x="714" y="713"/>
    </contour>
  </outline>
</glyph>
<glyph name="question" format="2">
  <advance width="1236"/>
  <unicode hex="003F"/>
  <note>
question
</note>
  <outline>
    <contour>
      <point x="516" y="524" type="curve"/>
      <point x="680" y="524" type="line"/>
      <point x="666" y="545"/>
      <point x="655" y="617"/>
      <point x="655" y="652" type="curve" smooth="yes"/>
      <point x="655" y="879"/>
      <point x="1115" y="806"/>
      <point x="1115" y="1129" type="curve" smooth="yes"/>
      <point x="1115" y="1338"/>
      <point x="916" y="1463"/>
      <point x="568" y="1463" type="curve" smooth="yes"/>
      <point x="259" y="1463"/>
      <point x="119" y="1365"/>
      <point x="119" y="1145" type="curve" smooth="yes"/>
      <point x="119" y="1125"/>
      <point x="119" y="1113"/>
      <point x="119" y="1081" type="curve"/>
      <point x="383" y="1081" type="line"/>
      <point x="372" y="1089"/>
      <point x="370" y="1160"/>
      <point x="370" y="1169" type="curve" smooth="yes"/>
      <point x="370" y="1230"/>
      <point x="466" y="1267"/>
      <point x="567" y="1267" type="curve" smooth="yes"/>
      <point x="688" y="1267"/>
      <point x="812" y="1272"/>
      <point x="812" y="1126" type="curve" smooth="yes"/>
      <point x="812" y="892"/>
      <point x="490" y="942"/>
      <point x="490" y="641" type="curve" smooth="yes"/>
      <point x="490" y="581"/>
      <point x="503" y="565"/>
    </contour>
    <contour>
      <point x="596" y="-27" type="curve" smooth="yes"/>
      <point x="711" y="-27"/>
      <point x="792" y="54"/>
      <point x="792" y="169" type="curve" smooth="yes"/>
      <point x="792" y="284"/>
      <point x="711" y="365"/>
      <point x="596" y="365" type="curve" smooth="yes"/>
      <point x="481" y="365"/>
      <point x="400" y="284"/>
      <point x="400" y="169" type="curve" smooth="yes"/>
      <point x="400" y="54"/>
      <point x="481" y="-27"/>
    </contour>
  </outline>
</glyph>
<glyph name="L" format="2">
  <advance width="1330"/>
  <unicode hex="004C"/>
  <note>
L
</note>
  <anchor x="665" y="50" name="bottom"/>
  <anchor x="315" y="715" name="center"/>
  <anchor x="944" y="813" name="dot"/>
  <anchor x="1248" y="10" name="ogonek"/>
  <anchor x="485" y="1430" name="top"/>
  <anchor x="-52" y="1430" name="topleft"/>
  <anchor x="937" y="1430" name="topright"/>
  <outline>
    <contour>
      <point x="138" y="0" type="line"/>
      <point x="1227" y="0" type="line"/>
      <point x="1227" y="171" type="line"/>
      <point x="198" y="171" type="line"/>
      <point x="528" y="23" type="line"/>
      <point x="528" y="1437" type="line"/>
      <point x="138" y="1437" type="line"/>
    </contour>
  </outline>
</glyph>
<glyph name="Q" format="2">
  <advance width="1782"/>
  <unicode hex="0051"/>
  <note>
Q
</note>
  <anchor x="854" y="112" name="bottom"/>
  <anchor x="854" y="1357" name="top"/>
  <anchor x="891" y="777" name="center"/>
  <anchor x="1082" y="62" name="ogonek"/>
  <anchor x="64" y="1492" name="topleft"/>
  <anchor x="1718" y="1492" name="topright"/>
  <outline>
    <contour>
      <point x="1142" y="-392" type="curve" smooth="yes"/>
      <point x="1328" y="-392"/>
      <point x="1365" y="-368"/>
      <point x="1350" y="-176" type="curve"/>
      <point x="1289" y="-176"/>
      <point x="1227" y="-176"/>
      <point x="1165" y="-176" type="curve" smooth="yes"/>
      <point x="1078" y="-176"/>
      <point x="1031" y="-156"/>
      <point x="1031" y="-121" type="curve" smooth="yes"/>
      <point x="1031" y="132" type="line"/>
      <point x="657" y="132" type="line"/>
      <point x="657" y="-104" type="line" smooth="yes"/>
      <point x="657" y="-222"/>
      <point x="739" y="-312"/>
      <point x="865" y="-355" type="curve" smooth="yes"/>
      <point x="952" y="-384"/>
      <point x="1014" y="-392"/>
    </contour>
    <component base="O" yOffset="62"/>
  </outline>
</glyph>
<glyph name="p" format="2">
  <advance width="1417"/>
  <unicode hex="0070"/>
  <note>
p
</note>
  <anchor x="715" y="70" name="bottom"/>
  <anchor x="715" y="1006" name="top"/>
  <outline>
    <contour>
      <point x="112" y="-526" type="line"/>
      <point x="478" y="-526" type="line"/>
      <point x="478" y="439" type="line"/>
      <point x="386" y="363" type="line"/>
      <point x="431" y="96"/>
      <point x="580" y="-38"/>
      <point x="830" y="-38" type="curve" smooth="yes"/>
      <point x="1138" y="-38"/>
      <point x="1337" y="178"/>
      <point x="1337" y="507" type="curve" smooth="yes"/>
      <point x="1337" y="832"/>
      <point x="1135" y="1043"/>
      <point x="824" y="1043" type="curve" smooth="yes"/>
      <point x="571" y="1043"/>
      <point x="432" y="918"/>
      <point x="379" y="650" type="curve"/>
      <point x="474" y="576" type="line"/>
      <point x="474" y="1016" type="line"/>
      <point x="112" y="1016" type="line"/>
    </contour>
    <contour>
      <point x="772" y="165" type="curve" smooth="yes"/>
      <point x="629" y="165"/>
      <point x="527" y="324"/>
      <point x="527" y="511" type="curve" smooth="yes"/>
      <point x="527" y="689"/>
      <point x="624" y="840"/>
      <point x="767" y="840" type="curve" smooth="yes"/>
      <point x="914" y="840"/>
      <point x="990" y="742"/>
      <point x="990" y="503" type="curve" smooth="yes"/>
      <point x="990" y="266"/>
      <point x="915" y="165"/>
    </contour>
  </outline>
</glyph>
<glyph name="braceleft" format="2">
  <advance width="892"/>
  <unicode hex="007B"/>
  <note>
braceleft
</note>
  <outline>
    <contour>
      <point x="788" y="-376" type="curve"/>
      <point x="788" y="-143" type="line"/>
      <point x="608" y="-194"/>
      <point x="534" y="-133"/>
      <point x="534" y="69" type="curve" smooth="yes"/>
      <point x="534" y="360" type="line" smooth="yes"/>
      <point x="534" y="417"/>
      <point x="518" y="458"/>
      <point x="481" y="495" type="curve"/>
      <point x="518" y="532"/>
      <point x="534" y="572"/>
      <point x="534" y="629" type="curve" smooth="yes"/>
      <point x="534" y="1016" type="line" smooth="yes"/>
      <point x="534" y="1219"/>
      <point x="608" y="1279"/>
      <point x="788" y="1226" type="curve"/>
      <point x="788" y="1461" type="line"/>
      <point x="481" y="1498"/>
      <point x="289" y="1350"/>
      <point x="289" y="1079" type="curve" smooth="yes"/>
      <point x="289" y="629" type="line" smooth="yes"/>
      <point x="289" y="586"/>
      <point x="275" y="593"/>
      <point x="93" y="497" type="curve"/>
      <point x="275" y="395"/>
      <point x="289" y="403"/>
      <point x="289" y="360" type="curve" smooth="yes"/>
      <point x="289" y="6" type="line" smooth="yes"/>
      <point x="289" y="-268"/>
      <point x="479" y="-414"/>
    </contour>
  </outline>
</glyph>
<glyph name=".notdef" format="2">
  <advance width="1235"/>
  <unicode hex="007F"/>
  <note>
.notdef
</note>
  <outline>
    <contour>
      <point x="16" y="-337" type="line"/>
      <point x="1219" y="-337" type="line"/>
      <point x="1219" y="1419" type="line"/>
      <point x="16" y="1419" type="line"/>
    </contour>
    <contour>
      <point x="306" y="-68" type="line"/>
      <point x="306" y="1150" type="line"/>
      <point x="931" y="1150" type="line"/>
      <point x="931" y="-68" type="line"/>
    </contour>
  </outline>
</glyph>
<glyph name="logicalnot" format="2">
  <advance width="1188"/>
  <unicode hex="00AC"/>
  <note>
logicalnot
</note>
  <outline>
    <contour>
      <point x="1234" y="298" type="line"/>
      <point x="1523" y="298" type="line"/>
      <point x="1523" y="897" type="line"/>
      <point x="143" y="897" type="line"/>
      <point x="143" y="623" type="line"/>
      <point x="1234" y="623" type="line"/>
    </contour>
  </outline>
</glyph>
<glyph name="Eng" format="2">
  <advance width="1609"/>
  <unicode hex="014A"/>
  <outline>
    <contour>
      <point x="1088" y="-523" type="curve" smooth="yes"/>
      <point x="1296" y="-523"/>
      <point x="1466" y="-399"/>
      <point x="1466" y="-146" type="curve" smooth="yes"/>
      <point x="1466" y="1437" type="line"/>
      <point x="1167" y="1437" type="line"/>
      <point x="1167" y="411" type="line"/>
      <point x="1277" y="451" type="line"/>
      <point x="434" y="1437" type="line"/>
      <point x="133" y="1437" type="line"/>
      <point x="146" y="0" type="line"/>
      <point x="442" y="0" type="line"/>
      <point x="442" y="988" type="line"/>
      <point x="330" y="946" type="line"/>
      <point x="1160" y="0" type="line" smooth="yes"/>
      <point x="1202" y="-48"/>
      <point x="1210" y="-119"/>
      <point x="1210" y="-179" type="curve" smooth="yes"/>
      <point x="1210" y="-315"/>
      <point x="1149" y="-337"/>
      <point x="1076" y="-337" type="curve" smooth="yes"/>
      <point x="971" y="-337"/>
      <point x="876" y="-283"/>
      <point x="790" y="-190" type="curve"/>
      <point x="790" y="-442" type="line"/>
      <point x="856" y="-499"/>
      <point x="954" y="-523"/>
    </contour>
  </outline>
</glyph>
<glyph name="OE" format="2">
  <advance width="2378"/>
  <unicode hex="0152"/>
  <note>
OE
</note>
  <anchor x="1180" y="50" name="bottom"/>
  <anchor x="1180" y="1430" name="top"/>
  <outline>
    <contour>
      <point x="870" y="-45" type="curve" smooth="yes"/>
      <point x="1301" y="-43"/>
      <point x="1630" y="286"/>
      <point x="1630" y="712" type="curve" smooth="yes"/>
      <point x="1630" y="1139"/>
      <point x="1297" y="1466"/>
      <point x="870" y="1466" type="curve" smooth="yes"/>
      <point x="442" y="1466"/>
      <point x="108" y="1133"/>
      <point x="108" y="706" type="curve" smooth="yes"/>
      <point x="108" y="281"/>
      <point x="438" y="-47"/>
    </contour>
    <contour>
      <point x="870" y="142" type="curve" smooth="yes"/>
      <point x="642" y="142"/>
      <point x="494" y="364"/>
      <point x="494" y="706" type="curve" smooth="yes"/>
      <point x="494" y="1051"/>
      <point x="644" y="1279"/>
      <point x="870" y="1279" type="curve" smooth="yes"/>
      <point x="1095" y="1279"/>
      <point x="1248" y="1048"/>
      <point x="1248" y="706" type="curve" smooth="yes"/>
      <point x="1248" y="367"/>
      <point x="1098" y="142"/>
    </contour>
    <contour>
      <point x="1252" y="0" type="line"/>
      <point x="2261" y="0" type="line"/>
      <point x="2261" y="193" type="line"/>
      <point x="1192" y="193" type="line"/>
      <point x="1639" y="8" type="line"/>
      <point x="1639" y="818" type="line"/>
      <point x="1335" y="631" type="line"/>
      <point x="2261" y="631" type="line"/>
      <point x="2261" y="824" type="line"/>
      <point x="1303" y="824" type="line"/>
      <point x="1639" y="639" type="line"/>
      <point x="1639" y="1411" type="line"/>
      <point x="1295" y="1244" type="line"/>
      <point x="2261" y="1244" type="line"/>
      <point x="2261" y="1437" type="line"/>
      <point x="1252" y="1437" type="line"/>
    </contour>
  </outline>
</glyph>
<glyph name="florin" format="2">
  <advance width="1683"/>
  <unicode hex="0192"/>
  <note>
florin
</note>
  <guideline x="748" y="516" angle="82.9367"/>
  <guideline x="1074" y="688" angle="73.5644"/>
  <outline>
    <contour>
      <point x="604" y="418" type="line"/>
      <point x="994" y="418" type="line"/>
      <point x="1153" y="957" type="line"/>
      <point x="1132" y="1223"/>
      <point x="1164" y="1323"/>
      <point x="1316" y="1344" type="curve"/>
      <point x="1312" y="1335"/>
      <point x="1307" y="1324"/>
      <point x="1253" y="1191" type="curve"/>
      <point x="1542" y="1322" type="line"/>
      <point x="1499" y="1494"/>
      <point x="1407" y="1562"/>
      <point x="1232" y="1562" type="curve" smooth="yes"/>
      <point x="990" y="1562"/>
      <point x="892" y="1469"/>
      <point x="809" y="1156" type="curve" smooth="yes"/>
    </contour>
    <contour>
      <point x="450" y="-453" type="curve" smooth="yes"/>
      <point x="696" y="-453"/>
      <point x="767" y="-355"/>
      <point x="862" y="-30" type="curve" smooth="yes"/>
      <point x="1081" y="715" type="line"/>
      <point x="687" y="715" type="line"/>
      <point x="531" y="154" type="line"/>
      <point x="550" y="-117"/>
      <point x="517" y="-212"/>
      <point x="364" y="-234" type="curve"/>
      <point x="368" y="-225"/>
      <point x="374" y="-213"/>
      <point x="428" y="-81" type="curve"/>
      <point x="141" y="-210" type="line"/>
      <point x="181" y="-383"/>
      <point x="275" y="-453"/>
    </contour>
    <contour>
      <point x="485" y="772" type="line"/>
      <point x="1330" y="772" type="line"/>
      <point x="1384" y="970" type="line"/>
      <point x="536" y="970" type="line"/>
    </contour>
  </outline>
</glyph>
<glyph name="gravecomb" format="2">
  <unicode hex="0300"/>
  <note>
grave
</note>
  <anchor x="286" y="986" name="_top"/>
  <anchor x="286" y="1415" name="top"/>
  <outline>
    <contour>
      <point x="341" y="1085" type="curve"/>
      <point x="511" y="1085" type="line"/>
      <point x="433" y="1245"/>
      <point x="384" y="1329"/>
      <point x="340" y="1405" type="curve"/>
      <point x="60" y="1405" type="line"/>
      <point x="109" y="1338"/>
      <point x="219" y="1201"/>
    </contour>
  </outline>
</glyph>
<glyph name="brevecomb" format="2">
  <unicode hex="0306"/>
  <note>
breve
</note>
  <anchor x="437" y="986" name="_top"/>
  <anchor x="437" y="1453" name="top"/>
  <outline>
    <contour>
      <point x="438" y="1088" type="curve" smooth="yes"/>
      <point x="647" y="1088"/>
      <point x="769" y="1200"/>
      <point x="808" y="1443" type="curve"/>
      <point x="708" y="1443" type="line"/>
      <point x="640" y="1292"/>
      <point x="548" y="1242"/>
      <point x="438" y="1242" type="curve" smooth="yes"/>
      <point x="330" y="1242"/>
      <point x="228" y="1286"/>
      <point x="156" y="1443" type="curve"/>
      <point x="66" y="1443" type="line"/>
      <point x="99" y="1207"/>
      <point x="221" y="1088"/>
    </contour>
  </outline>
</glyph>
<glyph name="dieresiscomb" format="2">
  <unicode hex="0308"/>
  <note>
dieresis
</note>
  <anchor x="411" y="986" name="_top"/>
  <anchor x="411" y="1372" name="top"/>
  <outline>
    <contour>
      <point x="616" y="1045" type="curve" smooth="yes"/>
      <point x="703" y="1045"/>
      <point x="775" y="1116"/>
      <point x="775" y="1204" type="curve" smooth="yes"/>
      <point x="775" y="1292"/>
      <point x="704" y="1362"/>
      <point x="616" y="1362" type="curve" smooth="yes"/>
      <point x="527" y="1362"/>
      <point x="456" y="1292"/>
      <point x="456" y="1204" type="curve" smooth="yes"/>
      <point x="456" y="1116"/>
      <point x="527" y="1045"/>
    </contour>
    <contour>
      <point x="206" y="1045" type="curve" smooth="yes"/>
      <point x="294" y="1045"/>
      <point x="366" y="1117"/>
      <point x="366" y="1204" type="curve" smooth="yes"/>
      <point x="366" y="1292"/>
      <point x="295" y="1362"/>
      <point x="206" y="1362" type="curve" smooth="yes"/>
      <point x="118" y="1362"/>
      <point x="47" y="1292"/>
      <point x="47" y="1204" type="curve" smooth="yes"/>
      <point x="47" y="1116"/>
      <point x="119" y="1045"/>
    </contour>
  </outline>
</glyph>
<glyph name="ogonekcomb" format="2">
  <unicode hex="0328"/>
  <anchor x="476" y="0" name="_ogonek"/>
  <outline>
    <contour>
      <point x="318" y="-442" type="curve" smooth="yes"/>
      <point x="416" y="-442"/>
      <point x="524" y="-409"/>
      <point x="626" y="-368" type="curve"/>
      <point x="626" y="-279" type="line"/>
      <point x="442" y="-351"/>
      <point x="402" y="-366"/>
      <point x="361" y="-366" type="curve" smooth="yes"/>
      <point x="325" y="-366"/>
      <point x="295" y="-320"/>
      <point x="295" y="-259" type="curve" smooth="yes"/>
      <point x="295" y="-162"/>
      <point x="395" y="-81"/>
      <point x="561" y="0" type="curve"/>
      <point x="405" y="0" type="line" smooth="yes"/>
      <point x="284" y="0"/>
      <point x="38" y="-122"/>
      <point x="38" y="-248" type="curve" smooth="yes"/>
      <point x="38" y="-381"/>
      <point x="168" y="-442"/>
    </contour>
  </outline>
</glyph>
<glyph name="manat" format="2">
  <advance width="1459"/>
  <unicode hex="20BC"/>
  <outline>
    <contour>
      <point x="159" y="0" type="line"/>
      <point x="461" y="0" type="line"/>
      <point x="461" y="495" type="line"/>
      <point x="461" y="689"/>
      <point x="544" y="841"/>
      <point x="729" y="841" type="curve" smooth="yes"/>
      <point x="919" y="841"/>
      <point x="998" y="682"/>
      <point x="998" y="496" type="curve"/>
      <point x="998" y="0" type="line"/>
      <point x="1300" y="0" type="line"/>
      <point x="1300" y="496" type="line"/>
      <point x="1300" y="825"/>
      <point x="1075" y="1043"/>
      <point x="730" y="1043" type="curve" smooth="yes"/>
      <point x="386" y="1043"/>
      <point x="159" y="825"/>
      <point x="159" y="496" type="curve"/>
    </contour>
    <contour>
      <point x="652" y="0" type="line"/>
      <point x="808" y="0" type="line"/>
      <point x="808" y="1302" type="line"/>
      <point x="652" y="1302" type="line"/>
    </contour>
  </outline>
</glyph>
<glyph name="apple" format="2">
  <advance width="1738"/>
  <unicode hex="F000"/>
  <note>
apple
</note>
  <outline>
    <contour>
      <point x="626" y="-31" type="curve" smooth="yes"/>
      <point x="660" y="-31"/>
      <point x="696" y="-22"/>
      <point x="759" y="2" type="curve" smooth="yes"/>
      <point x="796" y="16"/>
      <point x="851" y="27"/>
      <point x="885" y="27" type="curve" smooth="yes"/>
      <point x="913" y="27"/>
      <point x="962" y="17"/>
      <point x="1003" y="3" type="curve" smooth="yes"/>
      <point x="1077" y="-22"/>
      <point x="1113" y="-31"/>
      <point x="1141" y="-31" type="curve" smooth="yes"/>
      <point x="1215" y="-31"/>
      <point x="1275" y="0"/>
      <point x="1356" y="73" type="curve" smooth="yes"/>
      <point x="1407" y="119"/>
      <point x="1505" y="268"/>
      <point x="1608" y="462" type="curve"/>
      <point x="1422" y="519"/>
      <point x="1333" y="602"/>
      <point x="1333" y="718" type="curve" smooth="yes"/>
      <point x="1333" y="824"/>
      <point x="1410" y="897"/>
      <point x="1600" y="985" type="curve"/>
      <point x="1442" y="1153"/>
      <point x="1332" y="1216"/>
      <point x="1159" y="1216" type="curve" smooth="yes"/>
      <point x="1121" y="1216"/>
      <point x="1083" y="1207"/>
      <point x="1001" y="1180" type="curve" smooth="yes"/>
      <point x="965" y="1167"/>
      <point x="910" y="1155"/>
      <point x="883" y="1155" type="curve" smooth="yes"/>
      <point x="852" y="1155"/>
      <point x="799" y="1165"/>
      <point x="765" y="1177" type="curve" smooth="yes"/>
      <point x="687" y="1205"/>
      <point x="647" y="1214"/>
      <point x="603" y="1214" type="curve" smooth="yes"/>
      <point x="328" y="1214"/>
      <point x="136" y="1007"/>
      <point x="136" y="714" type="curve" smooth="yes"/>
      <point x="136" y="534"/>
      <point x="218" y="326"/>
      <point x="355" y="157" type="curve" smooth="yes"/>
      <point x="458" y="29"/>
      <point x="541" y="-31"/>
    </contour>
    <contour>
      <point x="889" y="1068" type="curve" smooth="yes"/>
      <point x="898" y="1068" type="line"/>
      <point x="906" y="1067" type="line"/>
      <point x="1066" y="1067"/>
      <point x="1228" y="1248"/>
      <point x="1228" y="1430" type="curve" smooth="yes"/>
      <point x="1228" y="1479"/>
      <point x="1225" y="1490"/>
      <point x="1226" y="1556" type="curve"/>
      <point x="1029" y="1547"/>
      <point x="861" y="1367"/>
      <point x="861" y="1167" type="curve" smooth="yes"/>
      <point x="861" y="1155"/>
      <point x="862" y="1132"/>
      <point x="863" y="1066" type="curve"/>
      <point x="880" y="1070"/>
      <point x="887" y="1068"/>
    </contour>
  </outline>
</glyph>
<glyph name="currency_horz_stroke_long.case" format="2">
  <advance width="2028"/>
  <anchor x="1014" y="0" name="_bottom"/>
  <anchor x="1012" y="-318" name="bottom"/>
  <outline>
    <contour>
      <point x="147" y="576" type="line"/>
      <point x="1881" y="576" type="line"/>
      <point x="1881" y="769" type="line"/>
      <point x="147" y="769" type="line"/>
    </contour>
  </outline>
</glyph>
<glyph name="f_t" format="2">
  <advance width="1513"/>
  <anchor x="378" y="0" name="bottom_1"/>
  <anchor x="1135" y="0" name="bottom_2"/>
  <anchor x="756.5" y="0" name="caret_1"/>
  <anchor x="378" y="1524" name="top_1"/>
  <anchor x="1135" y="1524" name="top_2"/>
  <outline>
    <contour>
      <point x="1137" y="-32" type="curve" smooth="yes"/>
      <point x="1234" y="-32"/>
      <point x="1382" y="-10"/>
      <point x="1436" y="12" type="curve"/>
      <point x="1436" y="216" type="line"/>
      <point x="1316" y="172"/>
      <point x="1266" y="173"/>
      <point x="1237" y="173" type="curve" smooth="yes"/>
      <point x="1145" y="173"/>
      <point x="1183" y="243"/>
      <point x="1183" y="563" type="curve" smooth="yes"/>
      <point x="1183" y="753" type="line"/>
      <point x="1355" y="753" type="line"/>
      <point x="1355" y="956" type="line"/>
      <point x="1183" y="956" type="line"/>
      <point x="1183" y="1326" type="line" smooth="yes"/>
      <point x="1183" y="1483"/>
      <point x="980" y="1571"/>
      <point x="720" y="1571" type="curve" smooth="yes"/>
      <point x="397" y="1571"/>
      <point x="293" y="1436"/>
      <point x="293" y="1093" type="curve" smooth="yes"/>
      <point x="293" y="956" type="line"/>
      <point x="77" y="956" type="line"/>
      <point x="77" y="753" type="line"/>
      <point x="293" y="753" type="line"/>
      <point x="293" y="0" type="line"/>
      <point x="655" y="0" type="line"/>
      <point x="655" y="753" type="line"/>
      <point x="850" y="753" type="line"/>
      <point x="850" y="255" type="line" smooth="yes"/>
      <point x="850" y="74"/>
      <point x="925" y="-32"/>
    </contour>
    <contour>
      <point x="711" y="956" type="curve" smooth="yes"/>
      <point x="655" y="956" type="line"/>
      <point x="655" y="978" type="line" smooth="yes"/>
      <point x="655" y="1138"/>
      <point x="551" y="1352"/>
      <point x="762" y="1352" type="curve" smooth="yes"/>
      <point x="823" y="1352"/>
      <point x="980" y="1370"/>
      <point x="980" y="1225" type="curve"/>
      <point x="980" y="1213" type="line"/>
      <point x="979" y="948"/>
      <point x="945" y="959"/>
    </contour>
  </outline>
</glyph>
<glyph name="five.dnom" format="2">
  <advance width="825"/>
  <note>
five
</note>
  <outline>
    <contour>
      <point x="394" y="-31" type="curve" smooth="yes"/>
      <point x="661" y="-31"/>
      <point x="807" y="109"/>
      <point x="807" y="308" type="curve" smooth="yes"/>
      <point x="807" y="543"/>
      <point x="588" y="602"/>
      <point x="432" y="602" type="curve" smooth="yes"/>
      <point x="261" y="602"/>
      <point x="246" y="531"/>
      <point x="194" y="454" type="curve"/>
      <point x="243" y="460" type="line"/>
      <point x="289" y="796" type="line"/>
      <point x="139" y="740" type="line"/>
      <point x="718" y="740" type="line"/>
      <point x="718" y="944" type="line"/>
      <point x="140" y="944" type="line"/>
      <point x="67" y="446" type="line"/>
      <point x="210" y="370" type="line"/>
      <point x="258" y="405"/>
      <point x="290" y="421"/>
      <point x="364" y="421" type="curve" smooth="yes"/>
      <point x="487" y="421"/>
      <point x="554" y="387"/>
      <point x="554" y="280" type="curve" smooth="yes"/>
      <point x="554" y="162"/>
      <point x="475" y="138"/>
      <point x="379" y="138" type="curve" smooth="yes"/>
      <point x="290" y="138"/>
      <point x="181" y="159"/>
      <point x="55" y="203" type="curve"/>
      <point x="19" y="60" type="line"/>
      <point x="121" y="10"/>
      <point x="249" y="-31"/>
    </contour>
  </outline>
</glyph>
<glyph name="m.rvrn" format="2">
  <advance width="1903"/>
  <note>
m
</note>
  <anchor x="946" y="70" name="bottom"/>
  <anchor x="946" y="1006" name="top"/>
  <outline>
    <contour>
      <point x="106" y="0" type="line"/>
      <point x="468" y="0" type="line"/>
      <point x="468" y="502" type="line" smooth="yes"/>
      <point x="468" y="688"/>
      <point x="553" y="838"/>
      <point x="662" y="838" type="curve" smooth="yes"/>
      <point x="758" y="838"/>
      <point x="798" y="751"/>
      <point x="798" y="563" type="curve" smooth="yes"/>
      <point x="798" y="0" type="line"/>
      <point x="1159" y="0" type="line"/>
      <point x="1159" y="766" type="line"/>
      <point x="1130" y="766" type="line"/>
      <point x="1071" y="944"/>
      <point x="930" y="1043"/>
      <point x="736" y="1043" type="curve" smooth="yes"/>
      <point x="552" y="1043"/>
      <point x="457" y="968"/>
      <point x="335" y="735" type="curve"/>
      <point x="470" y="512" type="line"/>
      <point x="470" y="1021" type="line"/>
      <point x="106" y="1021" type="line"/>
    </contour>
    <contour>
      <point x="1445" y="0" type="line"/>
      <point x="1806" y="0" type="line"/>
      <point x="1806" y="646" type="line" smooth="yes"/>
      <point x="1806" y="888"/>
      <point x="1649" y="1043"/>
      <point x="1396" y="1043" type="curve" smooth="yes"/>
      <point x="1198" y="1043"/>
      <point x="1119" y="967"/>
      <point x="952" y="665" type="curve"/>
      <point x="1161" y="451" type="line"/>
      <point x="1148" y="686"/>
      <point x="1207" y="825"/>
      <point x="1326" y="825" type="curve" smooth="yes"/>
      <point x="1418" y="825"/>
      <point x="1445" y="759"/>
      <point x="1445" y="563" type="curve" smooth="yes"/>
    </contour>
  </outline>
</glyph>
<glyph name="nine.osf" format="2">
  <advance width="1340"/>
  <outline>
    <contour>
      <point x="314" y="-481" type="line"/>
      <point x="640" y="-474"/>
      <point x="779" y="-425"/>
      <point x="882" y="-342" type="curve" smooth="yes"/>
      <point x="975" y="-266"/>
      <point x="1057" y="-131"/>
      <point x="1080" y="-91" type="curve" smooth="yes"/>
      <point x="1226" y="161"/>
      <point x="1210" y="387"/>
      <point x="1210" y="491" type="curve" smooth="yes"/>
      <point x="1210" y="884"/>
      <point x="984" y="1038"/>
      <point x="660" y="1038" type="curve" smooth="yes"/>
      <point x="303" y="1038"/>
      <point x="127" y="811"/>
      <point x="127" y="516" type="curve" smooth="yes"/>
      <point x="127" y="223"/>
      <point x="349" y="25"/>
      <point x="632" y="25" type="curve" smooth="yes"/>
      <point x="777" y="25"/>
      <point x="879" y="77"/>
      <point x="1049" y="286" type="curve"/>
      <point x="893" y="257" type="line"/>
      <point x="883" y="153"/>
      <point x="880" y="68"/>
      <point x="838" y="-24" type="curve" smooth="yes"/>
      <point x="774" y="-166"/>
      <point x="654" y="-243"/>
      <point x="317" y="-243" type="curve"/>
    </contour>
    <contour>
      <point x="641" y="257" type="curve" smooth="yes"/>
      <point x="494" y="257"/>
      <point x="447" y="380"/>
      <point x="447" y="540" type="curve" smooth="yes"/>
      <point x="447" y="759"/>
      <point x="543" y="838"/>
      <point x="655" y="838" type="curve" smooth="yes"/>
      <point x="800" y="838"/>
      <point x="876" y="704"/>
      <point x="876" y="537" type="curve" smooth="yes"/>
      <point x="876" y="320"/>
      <point x="746" y="257"/>
    </contour>
  </outline>
</glyph>
